<?xml version="1.0" encoding="UTF-8" standalone="no"?>
<!DOCTYPE svg PUBLIC "-//W3C//DTD SVG 1.1//EN"
 "http://www.w3.org/Graphics/SVG/1.1/DTD/svg11.dtd">
<!-- Generated by graphviz version 2.38.0 (20140413.2041)
 -->
<!-- Title: write_jobs.main Pages: 1 -->
<svg width="408pt" height="154pt"
 viewBox="0.00 0.00 408.00 154.00" xmlns="http://www.w3.org/2000/svg" xmlns:xlink="http://www.w3.org/1999/xlink">
<g id="graph0" class="graph" transform="scale(1 1) rotate(0) translate(4 150)">
<title>write_jobs.main</title>
<polygon fill="white" stroke="none" points="-4,4 -4,-150 404,-150 404,4 -4,4"/>
<!-- Node1 -->
<g id="node1" class="node"><title>Node1</title>
<polygon fill="#bfbfbf" stroke="black" points="0,-60.5 0,-79.5 85,-79.5 85,-60.5 0,-60.5"/>
<text text-anchor="middle" x="42.5" y="-67.5" font-family="Helvetica,sans-Serif" font-size="10.00">write_jobs.main</text>
</g>
<!-- Node2 -->
<g id="node2" class="node"><title>Node2</title>
<g id="a_node2"><a xlink:href="namespacewrite__jobs.html#a06e0823c2412f25b6cf53c03ee432081" target="_top" xlink:title="write_jobs.get_cmd_line">
<polygon fill="white" stroke="black" points="130,-126.5 130,-145.5 252,-145.5 252,-126.5 130,-126.5"/>
<text text-anchor="middle" x="191" y="-133.5" font-family="Helvetica,sans-Serif" font-size="10.00">write_jobs.get_cmd_line</text>
</a>
</g>
</g>
<!-- Node1&#45;&gt;Node2 -->
<g id="edge1" class="edge"><title>Node1&#45;&gt;Node2</title>
<path fill="none" stroke="midnightblue" d="M56.6065,-79.5092C71.5467,-89.9686 97.0117,-106.661 121,-117 126.482,-119.363 132.337,-121.508 138.232,-123.434"/>
<polygon fill="midnightblue" stroke="midnightblue" points="137.544,-126.884 148.131,-126.468 139.596,-120.191 137.544,-126.884"/>
</g>
<!-- Node3 -->
<g id="node3" class="node"><title>Node3</title>
<g id="a_node3"><a xlink:href="namespacewrite__jobs.html#a2d6d0a22d3c82ee03ac54f319bdf6179" target="_top" xlink:title="write_jobs.get_model\l_names">
<polygon fill="white" stroke="black" points="136.5,-77 136.5,-107 245.5,-107 245.5,-77 136.5,-77"/>
<text text-anchor="start" x="144.5" y="-95" font-family="Helvetica,sans-Serif" font-size="10.00">write_jobs.get_model</text>
<text text-anchor="middle" x="191" y="-84" font-family="Helvetica,sans-Serif" font-size="10.00">_names</text>
</a>
</g>
</g>
<!-- Node1&#45;&gt;Node3 -->
<g id="edge2" class="edge"><title>Node1&#45;&gt;Node3</title>
<path fill="none" stroke="midnightblue" d="M85.0892,-76.2455C97.8865,-78.1673 112.28,-80.3288 126.21,-82.4206"/>
<polygon fill="midnightblue" stroke="midnightblue" points="125.833,-85.9031 136.242,-83.9271 126.872,-78.9808 125.833,-85.9031"/>
</g>
<!-- Node4 -->
<g id="node4" class="node"><title>Node4</title>
<g id="a_node4"><a xlink:href="namespacewrite__jobs.html#acc6672df0fc24e9b0bf717f794305f2d" target="_top" xlink:title="write_jobs.get_combinations">
<polygon fill="white" stroke="black" points="121,-38.5 121,-57.5 261,-57.5 261,-38.5 121,-38.5"/>
<text text-anchor="middle" x="191" y="-45.5" font-family="Helvetica,sans-Serif" font-size="10.00">write_jobs.get_combinations</text>
</a>
</g>
</g>
<!-- Node1&#45;&gt;Node4 -->
<g id="edge3" class="edge"><title>Node1&#45;&gt;Node4</title>
<path fill="none" stroke="midnightblue" d="M85.0892,-63.7545C94.9985,-62.2664 105.865,-60.6346 116.732,-59.0027"/>
<polygon fill="midnightblue" stroke="midnightblue" points="117.315,-62.4544 126.685,-57.5081 116.276,-55.532 117.315,-62.4544"/>
</g>
<!-- Node6 -->
<g id="node6" class="node"><title>Node6</title>
<g id="a_node6"><a xlink:href="namespacewrite__jobs.html#ade7c1f09d9c98247995ca197e559e7eb" target="_top" xlink:title="write_jobs.write_all">
<polygon fill="white" stroke="black" points="141,-0.5 141,-19.5 241,-19.5 241,-0.5 141,-0.5"/>
<text text-anchor="middle" x="191" y="-7.5" font-family="Helvetica,sans-Serif" font-size="10.00">write_jobs.write_all</text>
</a>
</g>
</g>
<!-- Node1&#45;&gt;Node6 -->
<g id="edge5" class="edge"><title>Node1&#45;&gt;Node6</title>
<path fill="none" stroke="midnightblue" d="M59.0481,-60.4739C74.3627,-51.4075 98.6445,-37.8683 121,-29 126.912,-26.6548 133.218,-24.4878 139.525,-22.5215"/>
<polygon fill="midnightblue" stroke="midnightblue" points="140.786,-25.7982 149.379,-19.6001 138.797,-19.0869 140.786,-25.7982"/>
</g>
<!-- Node5 -->
<g id="node5" class="node"><title>Node5</title>
<g id="a_node5"><a xlink:href="namespacewrite__jobs.html#a72e36173f612fac2ff7acd68f8cdf615" target="_top" xlink:title="write_jobs.write_job">
<polygon fill="white" stroke="black" points="297,-19.5 297,-38.5 400,-38.5 400,-19.5 297,-19.5"/>
<text text-anchor="middle" x="348.5" y="-26.5" font-family="Helvetica,sans-Serif" font-size="10.00">write_jobs.write_job</text>
</a>
</g>
</g>
<!-- Node4&#45;&gt;Node5 -->
<g id="edge4" class="edge"><title>Node4&#45;&gt;Node5</title>
<path fill="none" stroke="midnightblue" d="M261.11,-39.5557C269.645,-38.5129 278.32,-37.4528 286.718,-36.4268"/>
<polygon fill="midnightblue" stroke="midnightblue" points="287.294,-39.8825 296.795,-35.1954 286.445,-32.9342 287.294,-39.8825"/>
</g>
<!-- Node6&#45;&gt;Node5 -->
<g id="edge6" class="edge"><title>Node6&#45;&gt;Node5</title>
<path fill="none" stroke="midnightblue" d="M241.201,-16.0117C255.588,-17.7696 271.489,-19.7125 286.513,-21.5482"/>
<polygon fill="midnightblue" stroke="midnightblue" points="286.394,-25.0596 296.745,-22.7984 287.243,-18.1113 286.394,-25.0596"/>
</g>
</g>
</svg>
