<?xml version="1.0" encoding="UTF-8" standalone="no"?>
<!DOCTYPE svg PUBLIC "-//W3C//DTD SVG 1.1//EN"
 "http://www.w3.org/Graphics/SVG/1.1/DTD/svg11.dtd">
<!-- Generated by graphviz version 2.38.0 (20140413.2041)
 -->
<!-- Title: run.get_mean_scores Pages: 1 -->
<svg width="325pt" height="28pt"
 viewBox="0.00 0.00 325.00 28.00" xmlns="http://www.w3.org/2000/svg" xmlns:xlink="http://www.w3.org/1999/xlink">
<g id="graph0" class="graph" transform="scale(1 1) rotate(0) translate(4 24)">
<title>run.get_mean_scores</title>
<polygon fill="white" stroke="none" points="-4,4 -4,-24 321,-24 321,4 -4,4"/>
<!-- Node1 -->
<g id="node1" class="node"><title>Node1</title>
<polygon fill="#bfbfbf" stroke="black" points="0,-0.5 0,-19.5 110,-19.5 110,-0.5 0,-0.5"/>
<text text-anchor="middle" x="55" y="-7.5" font-family="Helvetica,sans-Serif" font-size="10.00">run.get_mean_scores</text>
</g>
<!-- Node2 -->
<g id="node2" class="node"><title>Node2</title>
<g id="a_node2"><a xlink:href="namespacerun.html#abc96df295367c05e50de22aee81eb667" target="_top" xlink:title="run.get_scores">
<polygon fill="white" stroke="black" points="146,-0.5 146,-19.5 227,-19.5 227,-0.5 146,-0.5"/>
<text text-anchor="middle" x="186.5" y="-7.5" font-family="Helvetica,sans-Serif" font-size="10.00">run.get_scores</text>
</a>
</g>
</g>
<!-- Node1&#45;&gt;Node2 -->
<g id="edge1" class="edge"><title>Node1&#45;&gt;Node2</title>
<path fill="none" stroke="midnightblue" d="M120.307,-10C128.979,-10 137.662,-10 145.733,-10"/>
<polygon fill="midnightblue" stroke="midnightblue" points="120.169,-6.5001 110.169,-10 120.169,-13.5001 120.169,-6.5001"/>
</g>
<!-- Node3 -->
<g id="node3" class="node"><title>Node3</title>
<g id="a_node3"><a xlink:href="namespacerun.html#a9c5af1e168e33914b2ff3996f6a22987" target="_top" xlink:title="run.main">
<polygon fill="white" stroke="black" points="263,-0.5 263,-19.5 317,-19.5 317,-0.5 263,-0.5"/>
<text text-anchor="middle" x="290" y="-7.5" font-family="Helvetica,sans-Serif" font-size="10.00">run.main</text>
</a>
</g>
</g>
<!-- Node2&#45;&gt;Node3 -->
<g id="edge2" class="edge"><title>Node2&#45;&gt;Node3</title>
<path fill="none" stroke="midnightblue" d="M237.035,-10C245.965,-10 254.946,-10 262.869,-10"/>
<polygon fill="midnightblue" stroke="midnightblue" points="237.033,-6.5001 227.033,-10 237.033,-13.5001 237.033,-6.5001"/>
</g>
</g>
</svg>
