<?xml version="1.0" encoding="UTF-8" standalone="no"?>
<!DOCTYPE svg PUBLIC "-//W3C//DTD SVG 1.1//EN"
 "http://www.w3.org/Graphics/SVG/1.1/DTD/svg11.dtd">
<!-- Generated by graphviz version 2.38.0 (20140413.2041)
 -->
<!-- Title: run.get_scores Pages: 1 -->
<svg width="518pt" height="72pt"
 viewBox="0.00 0.00 518.00 71.50" xmlns="http://www.w3.org/2000/svg" xmlns:xlink="http://www.w3.org/1999/xlink">
<g id="graph0" class="graph" transform="scale(1 1) rotate(0) translate(4 67.5)">
<title>run.get_scores</title>
<polygon fill="white" stroke="none" points="-4,4 -4,-67.5 514,-67.5 514,4 -4,4"/>
<!-- Node1 -->
<g id="node1" class="node"><title>Node1</title>
<polygon fill="#bfbfbf" stroke="black" points="0,-25 0,-44 81,-44 81,-25 0,-25"/>
<text text-anchor="middle" x="40.5" y="-32" font-family="Helvetica,sans-Serif" font-size="10.00">run.get_scores</text>
</g>
<!-- Node2 -->
<g id="node2" class="node"><title>Node2</title>
<g id="a_node2"><a xlink:href="namespacerun.html#a371ad4a894362d560fa18389eef44bd0" target="_top" xlink:title="run.get_model_by_name">
<polygon fill="white" stroke="black" points="117,-44 117,-63 240,-63 240,-44 117,-44"/>
<text text-anchor="middle" x="178.5" y="-51" font-family="Helvetica,sans-Serif" font-size="10.00">run.get_model_by_name</text>
</a>
</g>
</g>
<!-- Node1&#45;&gt;Node2 -->
<g id="edge1" class="edge"><title>Node1&#45;&gt;Node2</title>
<path fill="none" stroke="midnightblue" d="M81.2024,-40.0467C89.2914,-41.1767 98.0306,-42.3977 106.829,-43.6269"/>
<polygon fill="midnightblue" stroke="midnightblue" points="106.37,-47.0966 116.758,-45.0139 107.338,-40.1639 106.37,-47.0966"/>
</g>
<!-- Node3 -->
<g id="node3" class="node"><title>Node3</title>
<g id="a_node3"><a xlink:href="namespacerun.html#abc7550df19173f640994aece3b814648" target="_top" xlink:title="run.get_mean_scores">
<polygon fill="white" stroke="black" points="123.5,-6 123.5,-25 233.5,-25 233.5,-6 123.5,-6"/>
<text text-anchor="middle" x="178.5" y="-13" font-family="Helvetica,sans-Serif" font-size="10.00">run.get_mean_scores</text>
</a>
</g>
</g>
<!-- Node1&#45;&gt;Node3 -->
<g id="edge2" class="edge"><title>Node1&#45;&gt;Node3</title>
<path fill="none" stroke="midnightblue" d="M81.2024,-28.9533C91.287,-27.5445 102.382,-25.9944 113.344,-24.463"/>
<polygon fill="midnightblue" stroke="midnightblue" points="113.921,-27.9165 123.34,-23.0665 112.952,-20.9838 113.921,-27.9165"/>
</g>
<!-- Node4 -->
<g id="node4" class="node"><title>Node4</title>
<g id="a_node4"><a xlink:href="namespacerun.html#ad10d244bfc236402abe9749e95bd1ee7" target="_top" xlink:title="run.get_scores_list\l_pipeline">
<polygon fill="white" stroke="black" points="276,-0.5 276,-30.5 375,-30.5 375,-0.5 276,-0.5"/>
<text text-anchor="start" x="284" y="-18.5" font-family="Helvetica,sans-Serif" font-size="10.00">run.get_scores_list</text>
<text text-anchor="middle" x="325.5" y="-7.5" font-family="Helvetica,sans-Serif" font-size="10.00">_pipeline</text>
</a>
</g>
</g>
<!-- Node3&#45;&gt;Node4 -->
<g id="edge3" class="edge"><title>Node3&#45;&gt;Node4</title>
<path fill="none" stroke="midnightblue" d="M233.905,-15.5C244.38,-15.5 255.392,-15.5 265.99,-15.5"/>
<polygon fill="midnightblue" stroke="midnightblue" points="265.993,-19.0001 275.993,-15.5 265.993,-12.0001 265.993,-19.0001"/>
</g>
<!-- Node5 -->
<g id="node5" class="node"><title>Node5</title>
<g id="a_node5"><a xlink:href="namespacerun.html#ad53cd4914ac6dd3d2591f6cf2c596c9a" target="_top" xlink:title="run.get_scores_list">
<polygon fill="white" stroke="black" points="411,-6 411,-25 510,-25 510,-6 411,-6"/>
<text text-anchor="middle" x="460.5" y="-13" font-family="Helvetica,sans-Serif" font-size="10.00">run.get_scores_list</text>
</a>
</g>
</g>
<!-- Node4&#45;&gt;Node5 -->
<g id="edge4" class="edge"><title>Node4&#45;&gt;Node5</title>
<path fill="none" stroke="midnightblue" d="M375.269,-15.5C383.491,-15.5 392.104,-15.5 400.551,-15.5"/>
<polygon fill="midnightblue" stroke="midnightblue" points="400.737,-19.0001 410.737,-15.5 400.737,-12.0001 400.737,-19.0001"/>
</g>
</g>
</svg>
