<?xml version="1.0" encoding="UTF-8" standalone="no"?>
<!DOCTYPE svg PUBLIC "-//W3C//DTD SVG 1.1//EN"
 "http://www.w3.org/Graphics/SVG/1.1/DTD/svg11.dtd">
<!-- Generated by graphviz version 2.38.0 (20140413.2041)
 -->
<!-- Title: run.get_scores_list Pages: 1 -->
<svg width="595pt" height="39pt"
 viewBox="0.00 0.00 595.00 39.00" xmlns="http://www.w3.org/2000/svg" xmlns:xlink="http://www.w3.org/1999/xlink">
<g id="graph0" class="graph" transform="scale(1 1) rotate(0) translate(4 35)">
<title>run.get_scores_list</title>
<polygon fill="white" stroke="none" points="-4,4 -4,-35 591,-35 591,4 -4,4"/>
<!-- Node1 -->
<g id="node1" class="node"><title>Node1</title>
<polygon fill="#bfbfbf" stroke="black" points="0,-6 0,-25 99,-25 99,-6 0,-6"/>
<text text-anchor="middle" x="49.5" y="-13" font-family="Helvetica,sans-Serif" font-size="10.00">run.get_scores_list</text>
</g>
<!-- Node2 -->
<g id="node2" class="node"><title>Node2</title>
<g id="a_node2"><a xlink:href="namespacerun.html#ad10d244bfc236402abe9749e95bd1ee7" target="_top" xlink:title="run.get_scores_list\l_pipeline">
<polygon fill="white" stroke="black" points="135,-0.5 135,-30.5 234,-30.5 234,-0.5 135,-0.5"/>
<text text-anchor="start" x="143" y="-18.5" font-family="Helvetica,sans-Serif" font-size="10.00">run.get_scores_list</text>
<text text-anchor="middle" x="184.5" y="-7.5" font-family="Helvetica,sans-Serif" font-size="10.00">_pipeline</text>
</a>
</g>
</g>
<!-- Node1&#45;&gt;Node2 -->
<g id="edge1" class="edge"><title>Node1&#45;&gt;Node2</title>
<path fill="none" stroke="midnightblue" d="M109.455,-15.5C117.902,-15.5 126.515,-15.5 134.737,-15.5"/>
<polygon fill="midnightblue" stroke="midnightblue" points="109.269,-12.0001 99.2691,-15.5 109.269,-19.0001 109.269,-12.0001"/>
</g>
<!-- Node3 -->
<g id="node3" class="node"><title>Node3</title>
<g id="a_node3"><a xlink:href="namespacerun.html#abc7550df19173f640994aece3b814648" target="_top" xlink:title="run.get_mean_scores">
<polygon fill="white" stroke="black" points="270,-6 270,-25 380,-25 380,-6 270,-6"/>
<text text-anchor="middle" x="325" y="-13" font-family="Helvetica,sans-Serif" font-size="10.00">run.get_mean_scores</text>
</a>
</g>
</g>
<!-- Node2&#45;&gt;Node3 -->
<g id="edge2" class="edge"><title>Node2&#45;&gt;Node3</title>
<path fill="none" stroke="midnightblue" d="M244.498,-15.5C252.948,-15.5 261.606,-15.5 269.953,-15.5"/>
<polygon fill="midnightblue" stroke="midnightblue" points="244.33,-12.0001 234.33,-15.5 244.33,-19.0001 244.33,-12.0001"/>
</g>
<!-- Node4 -->
<g id="node4" class="node"><title>Node4</title>
<g id="a_node4"><a xlink:href="namespacerun.html#abc96df295367c05e50de22aee81eb667" target="_top" xlink:title="run.get_scores">
<polygon fill="white" stroke="black" points="416,-6 416,-25 497,-25 497,-6 416,-6"/>
<text text-anchor="middle" x="456.5" y="-13" font-family="Helvetica,sans-Serif" font-size="10.00">run.get_scores</text>
</a>
</g>
</g>
<!-- Node3&#45;&gt;Node4 -->
<g id="edge3" class="edge"><title>Node3&#45;&gt;Node4</title>
<path fill="none" stroke="midnightblue" d="M390.307,-15.5C398.979,-15.5 407.662,-15.5 415.733,-15.5"/>
<polygon fill="midnightblue" stroke="midnightblue" points="390.169,-12.0001 380.169,-15.5 390.169,-19.0001 390.169,-12.0001"/>
</g>
<!-- Node5 -->
<g id="node5" class="node"><title>Node5</title>
<g id="a_node5"><a xlink:href="namespacerun.html#a9c5af1e168e33914b2ff3996f6a22987" target="_top" xlink:title="run.main">
<polygon fill="white" stroke="black" points="533,-6 533,-25 587,-25 587,-6 533,-6"/>
<text text-anchor="middle" x="560" y="-13" font-family="Helvetica,sans-Serif" font-size="10.00">run.main</text>
</a>
</g>
</g>
<!-- Node4&#45;&gt;Node5 -->
<g id="edge4" class="edge"><title>Node4&#45;&gt;Node5</title>
<path fill="none" stroke="midnightblue" d="M507.035,-15.5C515.965,-15.5 524.946,-15.5 532.869,-15.5"/>
<polygon fill="midnightblue" stroke="midnightblue" points="507.033,-12.0001 497.033,-15.5 507.033,-19.0001 507.033,-12.0001"/>
</g>
</g>
</svg>
