<?xml version="1.0" encoding="UTF-8" standalone="no"?>
<!DOCTYPE svg PUBLIC "-//W3C//DTD SVG 1.1//EN"
 "http://www.w3.org/Graphics/SVG/1.1/DTD/svg11.dtd">
<!-- Generated by graphviz version 2.38.0 (20140413.2041)
 -->
<!-- Title: run.get_scores_list_pipeline Pages: 1 -->
<svg width="460pt" height="39pt"
 viewBox="0.00 0.00 460.00 39.00" xmlns="http://www.w3.org/2000/svg" xmlns:xlink="http://www.w3.org/1999/xlink">
<g id="graph0" class="graph" transform="scale(1 1) rotate(0) translate(4 35)">
<title>run.get_scores_list_pipeline</title>
<polygon fill="white" stroke="none" points="-4,4 -4,-35 456,-35 456,4 -4,4"/>
<!-- Node1 -->
<g id="node1" class="node"><title>Node1</title>
<polygon fill="#bfbfbf" stroke="black" points="0,-0.5 0,-30.5 99,-30.5 99,-0.5 0,-0.5"/>
<text text-anchor="start" x="8" y="-18.5" font-family="Helvetica,sans-Serif" font-size="10.00">run.get_scores_list</text>
<text text-anchor="middle" x="49.5" y="-7.5" font-family="Helvetica,sans-Serif" font-size="10.00">_pipeline</text>
</g>
<!-- Node2 -->
<g id="node2" class="node"><title>Node2</title>
<g id="a_node2"><a xlink:href="namespacerun.html#abc7550df19173f640994aece3b814648" target="_top" xlink:title="run.get_mean_scores">
<polygon fill="white" stroke="black" points="135,-6 135,-25 245,-25 245,-6 135,-6"/>
<text text-anchor="middle" x="190" y="-13" font-family="Helvetica,sans-Serif" font-size="10.00">run.get_mean_scores</text>
</a>
</g>
</g>
<!-- Node1&#45;&gt;Node2 -->
<g id="edge1" class="edge"><title>Node1&#45;&gt;Node2</title>
<path fill="none" stroke="midnightblue" d="M109.498,-15.5C117.948,-15.5 126.606,-15.5 134.953,-15.5"/>
<polygon fill="midnightblue" stroke="midnightblue" points="109.33,-12.0001 99.3299,-15.5 109.33,-19.0001 109.33,-12.0001"/>
</g>
<!-- Node3 -->
<g id="node3" class="node"><title>Node3</title>
<g id="a_node3"><a xlink:href="namespacerun.html#abc96df295367c05e50de22aee81eb667" target="_top" xlink:title="run.get_scores">
<polygon fill="white" stroke="black" points="281,-6 281,-25 362,-25 362,-6 281,-6"/>
<text text-anchor="middle" x="321.5" y="-13" font-family="Helvetica,sans-Serif" font-size="10.00">run.get_scores</text>
</a>
</g>
</g>
<!-- Node2&#45;&gt;Node3 -->
<g id="edge2" class="edge"><title>Node2&#45;&gt;Node3</title>
<path fill="none" stroke="midnightblue" d="M255.307,-15.5C263.979,-15.5 272.662,-15.5 280.733,-15.5"/>
<polygon fill="midnightblue" stroke="midnightblue" points="255.169,-12.0001 245.169,-15.5 255.169,-19.0001 255.169,-12.0001"/>
</g>
<!-- Node4 -->
<g id="node4" class="node"><title>Node4</title>
<g id="a_node4"><a xlink:href="namespacerun.html#a9c5af1e168e33914b2ff3996f6a22987" target="_top" xlink:title="run.main">
<polygon fill="white" stroke="black" points="398,-6 398,-25 452,-25 452,-6 398,-6"/>
<text text-anchor="middle" x="425" y="-13" font-family="Helvetica,sans-Serif" font-size="10.00">run.main</text>
</a>
</g>
</g>
<!-- Node3&#45;&gt;Node4 -->
<g id="edge3" class="edge"><title>Node3&#45;&gt;Node4</title>
<path fill="none" stroke="midnightblue" d="M372.035,-15.5C380.965,-15.5 389.946,-15.5 397.869,-15.5"/>
<polygon fill="midnightblue" stroke="midnightblue" points="372.033,-12.0001 362.033,-15.5 372.033,-19.0001 372.033,-12.0001"/>
</g>
</g>
</svg>
