<?xml version="1.0" encoding="UTF-8" standalone="no"?>
<!DOCTYPE svg PUBLIC "-//W3C//DTD SVG 1.1//EN"
 "http://www.w3.org/Graphics/SVG/1.1/DTD/svg11.dtd">
<!-- Generated by graphviz version 2.38.0 (20140413.2041)
 -->
<!-- Title: run.get_model_by_name Pages: 1 -->
<svg width="338pt" height="28pt"
 viewBox="0.00 0.00 338.00 28.00" xmlns="http://www.w3.org/2000/svg" xmlns:xlink="http://www.w3.org/1999/xlink">
<g id="graph0" class="graph" transform="scale(1 1) rotate(0) translate(4 24)">
<title>run.get_model_by_name</title>
<polygon fill="white" stroke="none" points="-4,4 -4,-24 334,-24 334,4 -4,4"/>
<!-- Node1 -->
<g id="node1" class="node"><title>Node1</title>
<polygon fill="#bfbfbf" stroke="black" points="0,-0.5 0,-19.5 123,-19.5 123,-0.5 0,-0.5"/>
<text text-anchor="middle" x="61.5" y="-7.5" font-family="Helvetica,sans-Serif" font-size="10.00">run.get_model_by_name</text>
</g>
<!-- Node2 -->
<g id="node2" class="node"><title>Node2</title>
<g id="a_node2"><a xlink:href="namespacerun.html#abc96df295367c05e50de22aee81eb667" target="_top" xlink:title="run.get_scores">
<polygon fill="white" stroke="black" points="159,-0.5 159,-19.5 240,-19.5 240,-0.5 159,-0.5"/>
<text text-anchor="middle" x="199.5" y="-7.5" font-family="Helvetica,sans-Serif" font-size="10.00">run.get_scores</text>
</a>
</g>
</g>
<!-- Node1&#45;&gt;Node2 -->
<g id="edge1" class="edge"><title>Node1&#45;&gt;Node2</title>
<path fill="none" stroke="midnightblue" d="M133.522,-10C142.199,-10 150.81,-10 158.789,-10"/>
<polygon fill="midnightblue" stroke="midnightblue" points="133.34,-6.5001 123.34,-10 133.34,-13.5001 133.34,-6.5001"/>
</g>
<!-- Node3 -->
<g id="node3" class="node"><title>Node3</title>
<g id="a_node3"><a xlink:href="namespacerun.html#a9c5af1e168e33914b2ff3996f6a22987" target="_top" xlink:title="run.main">
<polygon fill="white" stroke="black" points="276,-0.5 276,-19.5 330,-19.5 330,-0.5 276,-0.5"/>
<text text-anchor="middle" x="303" y="-7.5" font-family="Helvetica,sans-Serif" font-size="10.00">run.main</text>
</a>
</g>
</g>
<!-- Node2&#45;&gt;Node3 -->
<g id="edge2" class="edge"><title>Node2&#45;&gt;Node3</title>
<path fill="none" stroke="midnightblue" d="M250.035,-10C258.965,-10 267.946,-10 275.869,-10"/>
<polygon fill="midnightblue" stroke="midnightblue" points="250.033,-6.5001 240.033,-10 250.033,-13.5001 250.033,-6.5001"/>
</g>
</g>
</svg>
