<?xml version="1.0" encoding="UTF-8" standalone="no"?>
<!DOCTYPE svg PUBLIC "-//W3C//DTD SVG 1.1//EN"
 "http://www.w3.org/Graphics/SVG/1.1/DTD/svg11.dtd">
<!-- Generated by graphviz version 2.38.0 (20140413.2041)
 -->
<!-- Title: run.get_mean_scores Pages: 1 -->
<svg width="388pt" height="39pt"
 viewBox="0.00 0.00 388.00 39.00" xmlns="http://www.w3.org/2000/svg" xmlns:xlink="http://www.w3.org/1999/xlink">
<g id="graph0" class="graph" transform="scale(1 1) rotate(0) translate(4 35)">
<title>run.get_mean_scores</title>
<polygon fill="white" stroke="none" points="-4,4 -4,-35 384,-35 384,4 -4,4"/>
<!-- Node1 -->
<g id="node1" class="node"><title>Node1</title>
<polygon fill="#bfbfbf" stroke="black" points="0,-6 0,-25 110,-25 110,-6 0,-6"/>
<text text-anchor="middle" x="55" y="-13" font-family="Helvetica,sans-Serif" font-size="10.00">run.get_mean_scores</text>
</g>
<!-- Node2 -->
<g id="node2" class="node"><title>Node2</title>
<g id="a_node2"><a xlink:href="namespacerun.html#ad10d244bfc236402abe9749e95bd1ee7" target="_top" xlink:title="run.get_scores_list\l_pipeline">
<polygon fill="white" stroke="black" points="146,-0.5 146,-30.5 245,-30.5 245,-0.5 146,-0.5"/>
<text text-anchor="start" x="154" y="-18.5" font-family="Helvetica,sans-Serif" font-size="10.00">run.get_scores_list</text>
<text text-anchor="middle" x="195.5" y="-7.5" font-family="Helvetica,sans-Serif" font-size="10.00">_pipeline</text>
</a>
</g>
</g>
<!-- Node1&#45;&gt;Node2 -->
<g id="edge1" class="edge"><title>Node1&#45;&gt;Node2</title>
<path fill="none" stroke="midnightblue" d="M110.341,-15.5C118.639,-15.5 127.236,-15.5 135.625,-15.5"/>
<polygon fill="midnightblue" stroke="midnightblue" points="135.72,-19.0001 145.72,-15.5 135.72,-12.0001 135.72,-19.0001"/>
</g>
<!-- Node3 -->
<g id="node3" class="node"><title>Node3</title>
<g id="a_node3"><a xlink:href="namespacerun.html#ad53cd4914ac6dd3d2591f6cf2c596c9a" target="_top" xlink:title="run.get_scores_list">
<polygon fill="white" stroke="black" points="281,-6 281,-25 380,-25 380,-6 281,-6"/>
<text text-anchor="middle" x="330.5" y="-13" font-family="Helvetica,sans-Serif" font-size="10.00">run.get_scores_list</text>
</a>
</g>
</g>
<!-- Node2&#45;&gt;Node3 -->
<g id="edge2" class="edge"><title>Node2&#45;&gt;Node3</title>
<path fill="none" stroke="midnightblue" d="M245.269,-15.5C253.491,-15.5 262.104,-15.5 270.551,-15.5"/>
<polygon fill="midnightblue" stroke="midnightblue" points="270.737,-19.0001 280.737,-15.5 270.737,-12.0001 270.737,-19.0001"/>
</g>
</g>
</svg>
