<?xml version="1.0" encoding="UTF-8" standalone="no"?>
<!DOCTYPE svg PUBLIC "-//W3C//DTD SVG 1.1//EN"
 "http://www.w3.org/Graphics/SVG/1.1/DTD/svg11.dtd">
<!-- Generated by graphviz version 2.38.0 (20140413.2041)
 -->
<!-- Title: write_jobs.write_job Pages: 1 -->
<svg width="408pt" height="66pt"
 viewBox="0.00 0.00 408.00 66.00" xmlns="http://www.w3.org/2000/svg" xmlns:xlink="http://www.w3.org/1999/xlink">
<g id="graph0" class="graph" transform="scale(1 1) rotate(0) translate(4 62)">
<title>write_jobs.write_job</title>
<polygon fill="white" stroke="none" points="-4,4 -4,-62 404,-62 404,4 -4,4"/>
<!-- Node1 -->
<g id="node1" class="node"><title>Node1</title>
<polygon fill="#bfbfbf" stroke="black" points="0,-19.5 0,-38.5 103,-38.5 103,-19.5 0,-19.5"/>
<text text-anchor="middle" x="51.5" y="-26.5" font-family="Helvetica,sans-Serif" font-size="10.00">write_jobs.write_job</text>
</g>
<!-- Node2 -->
<g id="node2" class="node"><title>Node2</title>
<g id="a_node2"><a xlink:href="namespacewrite__jobs.html#acc6672df0fc24e9b0bf717f794305f2d" target="_top" xlink:title="write_jobs.get_combinations">
<polygon fill="white" stroke="black" points="139,-38.5 139,-57.5 279,-57.5 279,-38.5 139,-38.5"/>
<text text-anchor="middle" x="209" y="-45.5" font-family="Helvetica,sans-Serif" font-size="10.00">write_jobs.get_combinations</text>
</a>
</g>
</g>
<!-- Node1&#45;&gt;Node2 -->
<g id="edge1" class="edge"><title>Node1&#45;&gt;Node2</title>
<path fill="none" stroke="midnightblue" d="M113.438,-36.4458C121.787,-37.466 130.408,-38.5193 138.89,-39.5557"/>
<polygon fill="midnightblue" stroke="midnightblue" points="113.767,-32.9601 103.417,-35.2213 112.918,-39.9084 113.767,-32.9601"/>
</g>
<!-- Node4 -->
<g id="node4" class="node"><title>Node4</title>
<g id="a_node4"><a xlink:href="namespacewrite__jobs.html#ade7c1f09d9c98247995ca197e559e7eb" target="_top" xlink:title="write_jobs.write_all">
<polygon fill="white" stroke="black" points="159,-0.5 159,-19.5 259,-19.5 259,-0.5 159,-0.5"/>
<text text-anchor="middle" x="209" y="-7.5" font-family="Helvetica,sans-Serif" font-size="10.00">write_jobs.write_all</text>
</a>
</g>
</g>
<!-- Node1&#45;&gt;Node4 -->
<g id="edge3" class="edge"><title>Node1&#45;&gt;Node4</title>
<path fill="none" stroke="midnightblue" d="M113.628,-21.531C128.618,-19.6994 144.474,-17.762 158.822,-16.0089"/>
<polygon fill="midnightblue" stroke="midnightblue" points="112.918,-18.0916 103.417,-22.7787 113.767,-25.0399 112.918,-18.0916"/>
</g>
<!-- Node3 -->
<g id="node3" class="node"><title>Node3</title>
<g id="a_node3"><a xlink:href="namespacewrite__jobs.html#a497f463fe8ccb3f4b14b3f626fc3866b" target="_top" xlink:title="write_jobs.main">
<polygon fill="white" stroke="black" points="315,-19.5 315,-38.5 400,-38.5 400,-19.5 315,-19.5"/>
<text text-anchor="middle" x="357.5" y="-26.5" font-family="Helvetica,sans-Serif" font-size="10.00">write_jobs.main</text>
</a>
</g>
</g>
<!-- Node2&#45;&gt;Node3 -->
<g id="edge2" class="edge"><title>Node2&#45;&gt;Node3</title>
<path fill="none" stroke="midnightblue" d="M289.343,-37.7098C298.139,-36.569 306.817,-35.4435 314.865,-34.3998"/>
<polygon fill="midnightblue" stroke="midnightblue" points="288.856,-34.2436 279.389,-39.0008 289.756,-41.1855 288.856,-34.2436"/>
</g>
<!-- Node4&#45;&gt;Node3 -->
<g id="edge4" class="edge"><title>Node4&#45;&gt;Node3</title>
<path fill="none" stroke="midnightblue" d="M269.485,-17.7148C284.591,-19.6739 300.507,-21.7381 314.537,-23.5577"/>
<polygon fill="midnightblue" stroke="midnightblue" points="269.557,-14.1949 259.19,-16.3796 268.657,-21.1368 269.557,-14.1949"/>
</g>
</g>
</svg>
