<?xml version="1.0" encoding="UTF-8" standalone="no"?>
<!DOCTYPE svg PUBLIC "-//W3C//DTD SVG 1.1//EN"
 "http://www.w3.org/Graphics/SVG/1.1/DTD/svg11.dtd">
<!-- Generated by graphviz version 2.38.0 (20140413.2041)
 -->
<!-- Title: run.main Pages: 1 -->
<svg width="618pt" height="91pt"
 viewBox="0.00 0.00 618.00 90.50" xmlns="http://www.w3.org/2000/svg" xmlns:xlink="http://www.w3.org/1999/xlink">
<g id="graph0" class="graph" transform="scale(1 1) rotate(0) translate(4 86.5)">
<title>run.main</title>
<polygon fill="white" stroke="none" points="-4,4 -4,-86.5 614,-86.5 614,4 -4,4"/>
<!-- Node1 -->
<g id="node1" class="node"><title>Node1</title>
<polygon fill="#bfbfbf" stroke="black" points="0,-44 0,-63 54,-63 54,-44 0,-44"/>
<text text-anchor="middle" x="27" y="-51" font-family="Helvetica,sans-Serif" font-size="10.00">run.main</text>
</g>
<!-- Node2 -->
<g id="node2" class="node"><title>Node2</title>
<g id="a_node2"><a xlink:href="namespacerun.html#a0bbaeb40411a19d383645afb34880ff2" target="_top" xlink:title="run.get_cmd_line">
<polygon fill="white" stroke="black" points="90,-63 90,-82 181,-82 181,-63 90,-63"/>
<text text-anchor="middle" x="135.5" y="-70" font-family="Helvetica,sans-Serif" font-size="10.00">run.get_cmd_line</text>
</a>
</g>
</g>
<!-- Node1&#45;&gt;Node2 -->
<g id="edge1" class="edge"><title>Node1&#45;&gt;Node2</title>
<path fill="none" stroke="midnightblue" d="M54.0528,-58.1479C61.8379,-59.5368 70.6832,-61.1148 79.5905,-62.7039"/>
<polygon fill="midnightblue" stroke="midnightblue" points="79.1609,-66.1825 89.6202,-64.4933 80.3904,-59.2913 79.1609,-66.1825"/>
</g>
<!-- Node3 -->
<g id="node3" class="node"><title>Node3</title>
<g id="a_node3"><a xlink:href="namespacerun.html#abc96df295367c05e50de22aee81eb667" target="_top" xlink:title="run.get_scores">
<polygon fill="white" stroke="black" points="95,-25 95,-44 176,-44 176,-25 95,-25"/>
<text text-anchor="middle" x="135.5" y="-32" font-family="Helvetica,sans-Serif" font-size="10.00">run.get_scores</text>
</a>
</g>
</g>
<!-- Node1&#45;&gt;Node3 -->
<g id="edge2" class="edge"><title>Node1&#45;&gt;Node3</title>
<path fill="none" stroke="midnightblue" d="M54.0528,-48.8521C63.2928,-47.2036 74.0262,-45.2888 84.5841,-43.4052"/>
<polygon fill="midnightblue" stroke="midnightblue" points="85.3685,-46.8206 94.5984,-41.6186 84.1391,-39.9294 85.3685,-46.8206"/>
</g>
<!-- Node4 -->
<g id="node4" class="node"><title>Node4</title>
<g id="a_node4"><a xlink:href="namespacerun.html#a371ad4a894362d560fa18389eef44bd0" target="_top" xlink:title="run.get_model_by_name">
<polygon fill="white" stroke="black" points="217,-44 217,-63 340,-63 340,-44 217,-44"/>
<text text-anchor="middle" x="278.5" y="-51" font-family="Helvetica,sans-Serif" font-size="10.00">run.get_model_by_name</text>
</a>
</g>
</g>
<!-- Node3&#45;&gt;Node4 -->
<g id="edge3" class="edge"><title>Node3&#45;&gt;Node4</title>
<path fill="none" stroke="midnightblue" d="M176.152,-39.8431C185.719,-41.1324 196.231,-42.5489 206.75,-43.9664"/>
<polygon fill="midnightblue" stroke="midnightblue" points="206.43,-47.4547 216.807,-45.3216 207.364,-40.5174 206.43,-47.4547"/>
</g>
<!-- Node5 -->
<g id="node5" class="node"><title>Node5</title>
<g id="a_node5"><a xlink:href="namespacerun.html#abc7550df19173f640994aece3b814648" target="_top" xlink:title="run.get_mean_scores">
<polygon fill="white" stroke="black" points="223.5,-6 223.5,-25 333.5,-25 333.5,-6 223.5,-6"/>
<text text-anchor="middle" x="278.5" y="-13" font-family="Helvetica,sans-Serif" font-size="10.00">run.get_mean_scores</text>
</a>
</g>
</g>
<!-- Node3&#45;&gt;Node5 -->
<g id="edge4" class="edge"><title>Node3&#45;&gt;Node5</title>
<path fill="none" stroke="midnightblue" d="M176.152,-29.1569C187.721,-27.5979 200.67,-25.853 213.344,-24.1452"/>
<polygon fill="midnightblue" stroke="midnightblue" points="213.974,-27.5919 223.417,-22.7877 213.039,-20.6546 213.974,-27.5919"/>
</g>
<!-- Node6 -->
<g id="node6" class="node"><title>Node6</title>
<g id="a_node6"><a xlink:href="namespacerun.html#ad10d244bfc236402abe9749e95bd1ee7" target="_top" xlink:title="run.get_scores_list\l_pipeline">
<polygon fill="white" stroke="black" points="376,-0.5 376,-30.5 475,-30.5 475,-0.5 376,-0.5"/>
<text text-anchor="start" x="384" y="-18.5" font-family="Helvetica,sans-Serif" font-size="10.00">run.get_scores_list</text>
<text text-anchor="middle" x="425.5" y="-7.5" font-family="Helvetica,sans-Serif" font-size="10.00">_pipeline</text>
</a>
</g>
</g>
<!-- Node5&#45;&gt;Node6 -->
<g id="edge5" class="edge"><title>Node5&#45;&gt;Node6</title>
<path fill="none" stroke="midnightblue" d="M333.905,-15.5C344.38,-15.5 355.392,-15.5 365.99,-15.5"/>
<polygon fill="midnightblue" stroke="midnightblue" points="365.993,-19.0001 375.993,-15.5 365.993,-12.0001 365.993,-19.0001"/>
</g>
<!-- Node7 -->
<g id="node7" class="node"><title>Node7</title>
<g id="a_node7"><a xlink:href="namespacerun.html#ad53cd4914ac6dd3d2591f6cf2c596c9a" target="_top" xlink:title="run.get_scores_list">
<polygon fill="white" stroke="black" points="511,-6 511,-25 610,-25 610,-6 511,-6"/>
<text text-anchor="middle" x="560.5" y="-13" font-family="Helvetica,sans-Serif" font-size="10.00">run.get_scores_list</text>
</a>
</g>
</g>
<!-- Node6&#45;&gt;Node7 -->
<g id="edge6" class="edge"><title>Node6&#45;&gt;Node7</title>
<path fill="none" stroke="midnightblue" d="M475.269,-15.5C483.491,-15.5 492.104,-15.5 500.551,-15.5"/>
<polygon fill="midnightblue" stroke="midnightblue" points="500.737,-19.0001 510.737,-15.5 500.737,-12.0001 500.737,-19.0001"/>
</g>
</g>
</svg>
